HIERARCHY
ROOT Hips
{
  OFFSET 7.333 -26.027 -164.856
  CHANNELS 6 Xposition Yposition Zposition Zrotation Xrotation Yrotation
  JOINT LeftUpLeg
  {
    OFFSET 10.092 0.000 0.000
    CHANNELS 3 Zrotation Xrotation Yrotation
    JOINT LeftLeg
    {
      OFFSET 0.000 -38.160 -0.000
    CHANNELS 3 Zrotation Xrotation Yrotation
      JOINT LeftFoot
      {
        OFFSET -0.000 -24.040 0.000
    CHANNELS 3 Zrotation Xrotation Yrotation
        End Site
        {
          OFFSET -0.000 0.000 12.945
        }
      }
    }
  }
  JOINT RightUpLeg
  {
    OFFSET -10.092 -0.000 0.000
    CHANNELS 3 Zrotation Xrotation Yrotation
    JOINT RightLeg
    {
      OFFSET 0.000 -33.046 0.000
    CHANNELS 3 Zrotation Xrotation Yrotation
      JOINT RightFoot
      {
        OFFSET 0.000 -22.031 -0.000
    CHANNELS 3 Zrotation Xrotation Yrotation
        End Site
        {
          OFFSET 0.000 -0.000 11.863
        }
      }
    }
  }
  JOINT Spine
  {
    OFFSET -0.000 16.511 0.000
    CHANNELS 3 Zrotation Xrotation Yrotation
    JOINT LeftShoulder
    {
      OFFSET 0 16.511 0
    CHANNELS 3 Zrotation Xrotation Yrotation
      JOINT LeftArm
      {
        OFFSET 16.337 0.000 0.000
    CHANNELS 3 Zrotation Xrotation Yrotation
        JOINT LeftForeArm
        {
          OFFSET 0.000 -24.030 0.000
    CHANNELS 3 Zrotation Xrotation Yrotation
          JOINT LeftHand
          {
            OFFSET 0.000 -17.629 -0.000
    CHANNELS 3 Zrotation Xrotation Yrotation
            End Site
            {
              OFFSET 0.000 -11.753 -0.000
            }
          }
        }
      }
    }
    JOINT RightShoulder
    {
      OFFSET 0 16.511 0
    CHANNELS 3 Zrotation Xrotation Yrotation
      JOINT RightArm
      {
        OFFSET -16.337 0.000 0.000
    CHANNELS 3 Zrotation Xrotation Yrotation
        JOINT RightForeArm
        {
          OFFSET -0.000 -19.534 0.000
    CHANNELS 3 Zrotation Xrotation Yrotation
          JOINT RightHand
          {
            OFFSET 0.000 -19.514 -0.000
    CHANNELS 3 Zrotation Xrotation Yrotation
            End Site
            {
              OFFSET 0.000 -13.010 -0.000
            }
          }
        }
      }
    }
    JOINT Neck
    {
      OFFSET -0.000 16.511 0.000
    CHANNELS 3 Zrotation Xrotation Yrotation
      JOINT Head
      {
        OFFSET -0.000 12.493 -0.000
    CHANNELS 3 Zrotation Xrotation Yrotation
        End Site
        {
          OFFSET -0.000 8.328 -0.000
        }
      }
    }
  }
}
MOTION
Frames: 17
Frame Time: 0.0333333
0 0 0 7.661581e-01 -2.243821e-02 -8.323707e+00 -4.014188e+00 9.179414e+00 6.411866e-01 6.120184e+00 -9.846413e+00 3.688964e-01 0 0 -5.034938e-08 -1.850722e+00 1.210434e+01 3.885854e-01 5.016777e+00 -1.485250e+01 8.226399e-01 0 0 0 1.252186e-07 NaN 1.398091e-05 0 0 0 3.886743e+01 -3.811797e+01 -9.773634e+01 1.143201e+02 -2.820690e+01 1.284258e+02 -8.601033e-07 5.693994e-09 1.463776e-07 0 0 0 -1.081768e+00 -3.064248e+01 8.944201e+01 -1.198720e+02 -3.697929e+01 -1.417541e+02 1.098790e-07 -2.029898e-07 NaN 2.325821e-01 -1.068904e+00 4.341561e-03 0 0 2.067091e-07 
0 0 0 1.032345e+00 -4.887423e-01 -6.880544e+00 -4.574908e+00 8.659486e+00 6.912471e-01 6.233345e+00 -7.908495e+00 2.345122e-01 0 0 -5.814206e-08 -1.776331e+00 1.263896e+01 3.886827e-01 4.073643e+00 -1.481883e+01 5.994176e-01 0 0 -4.951535e-08 -1.954653e-07 NaN -2.498939e-05 0 0 0 3.897156e+01 -4.299102e+01 -1.050707e+02 1.094034e+02 -2.218894e+01 1.264030e+02 2.506041e-07 1.759287e-07 1.769333e-07 0 0 0 5.019718e+00 -3.646494e+01 9.830482e+01 -1.129240e+02 -2.997616e+01 -1.385878e+02 1.173926e-07 -1.041161e-07 8.756041e-07 2.739009e-01 -1.471747e+00 7.062748e-03 0 0 NaN 
0 0 0 8.767973e-01 -7.870578e-01 -6.082280e+00 -4.104506e+00 9.015168e+00 6.444099e-01 5.485879e+00 -8.086875e+00 2.019701e-01 0 0 -5.194923e-08 -1.422385e+00 1.368644e+01 3.364656e-01 3.507283e+00 -1.632444e+01 5.981230e-01 0 0 -9.478854e-09 -1.567057e-07 -8.983748e-09 1.404973e-05 0 0 0 3.886834e+01 -4.878569e+01 -1.052296e+02 1.064306e+02 -1.874539e+01 1.237648e+02 NaN 1.017497e-07 NaN 0 0 0 1.116955e+01 -4.538916e+01 1.048225e+02 -1.076560e+02 -2.189558e+01 -1.386837e+02 8.147714e-08 -2.616025e-07 3.850893e-07 2.886268e-01 -1.104312e+00 5.562708e-03 0 0 -2.091147e-07 
0 0 0 1.200961e+00 -1.045924e+00 -7.682009e+00 -4.598424e+00 8.723974e+00 6.985509e-01 5.606962e+00 -7.622895e+00 1.408774e-01 0 0 -5.094158e-08 -1.865274e+00 1.451861e+01 4.684001e-01 3.529591e+00 -1.747923e+01 5.179065e-01 0 0 -1.807805e-09 -1.067589e-06 -7.009378e-07 -2.202331e-05 0 0 0 3.876837e+01 -4.988535e+01 -9.241698e+01 1.092664e+02 -1.719779e+01 1.309711e+02 NaN 9.967994e-08 1.667475e-07 0 0 0 1.161223e+01 -5.313523e+01 1.041955e+02 -1.059513e+02 -1.811908e+01 -1.400718e+02 -1.369769e-08 NaN NaN 1.363401e-01 -5.360489e-01 1.271000e-03 0 0 1.191253e-07 
0 0 0 1.066234e+00 -1.083220e+00 -9.750321e+00 -4.811496e+00 8.854777e+00 7.416972e-01 6.055026e+00 -7.495551e+00 1.693622e-01 0 0 -4.897353e-08 -2.605049e+00 1.348320e+01 6.089914e-01 5.021198e+00 -1.635784e+01 7.015396e-01 0 0 -2.504284e-07 NaN NaN 4.590579e-05 0 0 0 3.877933e+01 -4.710630e+01 -6.995819e+01 1.134542e+02 -1.725473e+01 1.367594e+02 -8.705302e-09 1.086146e-07 2.215411e-07 0 0 0 3.567399e+00 -5.726425e+01 9.500875e+01 -1.072821e+02 -1.338799e+01 -1.464289e+02 5.943890e-08 NaN NaN -1.155697e-01 2.947913e-01 6.000000e-04 0 0 3.923702e-08 
0 0 0 1.141793e+00 -7.051427e-01 -1.116420e+01 -4.950369e+00 8.225292e+00 7.095961e-01 6.410328e+00 -7.619051e+00 2.007026e-01 0 0 -1.406439e-07 -2.789890e+00 1.176900e+01 5.695136e-01 5.572610e+00 -1.488650e+01 7.305398e-01 0 0 NaN NaN NaN -2.800000e-05 0 0 0 3.907195e+01 -4.081982e+01 -4.717243e+01 1.146183e+02 -1.617265e+01 1.386171e+02 -2.244626e-07 1.617933e-09 NaN 0 0 0 -1.146809e+01 -5.678307e+01 7.845391e+01 -1.085810e+02 -6.976689e+00 -1.539246e+02 5.375772e-08 -7.338556e-08 1.279159e-07 -1.371462e-01 7.724345e-01 1.846664e-03 0 0 6.565580e-08 
0 0 0 8.478622e-01 -3.003484e-01 -1.205575e+01 -4.777000e+00 7.659382e+00 6.382809e-01 7.071385e+00 -7.404823e+00 3.009849e-01 0 0 NaN -2.069797e+00 1.079888e+01 3.879183e-01 4.969039e+00 -1.405414e+01 7.126492e-01 0 0 NaN -1.032961e-06 -1.681766e-07 1.897648e-05 0 0 0 3.883907e+01 -3.168139e+01 -3.080393e+01 1.121833e+02 -1.348794e+01 1.381149e+02 NaN -2.373860e-07 NaN 0 0 0 -2.415808e+01 -5.172484e+01 6.353497e+01 -1.111953e+02 -3.200514e-01 -9.925428e+01 4.011260e-08 -1.816156e-07 2.138795e-08 2.222363e-01 6.800641e-01 -2.644580e-03 0 0 7.212787e-08 
0 0 0 2.636913e-01 1.136543e-01 -1.233468e+01 -2.848051e+00 7.079574e+00 3.520721e-01 5.038790e+00 -6.645547e+00 2.563671e-01 0 0 NaN -1.011390e+00 1.087080e+01 1.907670e-01 4.982167e+00 -1.501428e+01 1.031990e+00 0 0 -1.743973e-08 2.459016e-07 5.196997e-08 -3.497868e-05 0 0 0 3.866162e+01 -2.245673e+01 -1.692361e+01 1.072121e+02 -1.194057e+01 1.319684e+02 NaN -1.542924e-08 1.222487e-07 0 0 0 -3.085217e+01 -4.326059e+01 5.350243e+01 -1.129989e+02 7.266843e+00 -1.346547e+02 2.868579e-08 -1.671943e-07 2.021931e-07 6.022602e-02 8.896730e-01 -9.345597e-04 0 0 -1.930449e-08 
0 0 0 8.573172e-01 5.497225e-01 -1.215721e+01 -2.826740e+00 5.947580e+00 2.929840e-01 4.429740e+00 -5.607471e+00 1.586303e-01 0 0 -5.451768e-08 -8.070020e-01 1.000974e+01 1.398480e-01 3.970160e+00 -1.463789e+01 7.989618e-01 0 0 -8.513183e-09 NaN NaN 4.198737e-05 0 0 0 3.889355e+01 -1.483433e+01 -8.045290e+00 1.010065e+02 -8.401849e+00 1.246057e+02 -9.286653e-08 -7.100629e-08 1.821517e-07 0 0 0 -3.655115e+01 -3.612609e+01 4.414205e+01 -1.118542e+02 1.365399e+01 -1.375387e+02 1.029338e-07 NaN 2.446809e-07 1.613522e-01 1.274508e+00 -3.612932e-03 0 0 3.370361e-08 
0 0 0 1.242223e+00 8.698475e-01 -1.235647e+01 -3.559512e+00 5.806107e+00 3.608353e-01 4.939886e+00 -6.828488e+00 1.655003e-01 0 0 -2.177022e-08 -1.920542e+00 8.808949e+00 2.938028e-01 5.001338e+00 -1.344505e+01 7.231535e-01 0 0 1.613239e-07 6.670591e-07 9.532222e-08 7.896317e-06 0 0 0 3.869368e+01 -7.588856e+00 -3.157873e-01 9.472321e+01 -6.998744e+00 1.072544e+02 -3.315655e-08 3.003245e-08 NaN 0 0 0 -3.845255e+01 -2.947483e+01 3.833086e+01 -1.098599e+02 1.737099e+01 -1.400455e+02 8.701830e-08 -5.403662e-07 NaN 2.088676e-01 1.482667e+00 -5.415033e-03 0 0 3.235333e-08 
0 0 0 1.323323e+00 1.064995e+00 -1.218728e+01 -4.044907e+00 5.572039e+00 3.934091e-01 5.880384e+00 -6.788101e+00 2.193713e-01 0 0 -3.811648e-08 -2.240975e+00 7.780564e+00 3.032047e-01 5.564861e+00 -1.181151e+01 6.880324e-01 0 0 NaN 4.734564e-07 1.222852e-07 3.700000e-05 0 0 0 3.896931e+01 -2.807940e+00 5.344922e+00 8.768939e+01 -7.349523e+00 7.799932e+01 -1.599499e-08 -3.819481e-07 1.286347e-07 0 0 0 -3.947534e+01 -2.426289e+01 3.370544e+01 -1.061645e+02 1.983082e+01 -1.412752e+02 9.961381e-08 NaN NaN 2.905628e-01 1.498558e+00 -7.580191e-03 0 0 9.682353e-08 
0 0 0 1.247905e+00 1.354149e+00 -1.174979e+01 -4.048473e+00 4.645807e+00 3.279804e-01 5.928770e+00 -5.895291e+00 1.935490e-01 0 0 -5.625490e-08 -1.883743e+00 7.413215e+00 2.424232e-01 5.052150e+00 -1.200187e+01 6.631044e-01 0 0 NaN NaN -1.428571e-08 2.390722e-05 0 0 0 3.917213e+01 -1.004306e-01 8.580914e+00 8.373702e+01 -8.271568e+00 6.494790e+01 -4.410930e-08 NaN 2.065830e-07 0 0 0 -3.999661e+01 -1.942231e+01 2.940368e+01 -1.026690e+02 1.889936e+01 -1.430417e+02 1.146865e-08 NaN -7.270590e-07 1.180092e-01 1.531581e+00 -3.159727e-03 0 0 2.924604e-08 
0 0 0 1.407671e+00 9.913103e-01 -1.183676e+01 -4.243798e+00 5.647241e+00 4.186797e-01 6.082302e+00 -6.923404e+00 2.240941e-01 0 0 -7.547170e-08 -2.185200e+00 8.266948e+00 2.855633e-01 5.287536e+00 -1.259676e+01 6.824690e-01 0 0 -1.016205e-09 -6.211996e-07 -3.315960e-07 -8.000000e-06 0 0 0 3.935150e+01 1.700485e+00 1.060625e+01 8.092143e+01 -9.509899e+00 5.848570e+01 -4.895640e-08 NaN NaN 0 0 0 -3.698386e+01 -1.588842e+01 2.863262e+01 -1.029074e+02 1.603514e+01 -1.439174e+02 1.030219e-09 -9.616414e-08 NaN 3.292103e-01 1.467120e+00 -8.442000e-03 0 0 4.720890e-08 
0 0 0 1.421453e+00 1.184570e+00 -1.166695e+01 -4.099115e+00 5.373747e+00 3.842223e-01 5.877212e+00 -6.985962e+00 2.185800e-01 0 0 NaN -1.883600e+00 8.011081e+00 2.640368e-01 4.812856e+00 -1.256969e+01 6.433151e-01 0 0 1.320914e-08 -3.703704e-08 NaN -3.296623e-05 0 0 0 3.943698e+01 1.486136e+00 1.037708e+01 8.076870e+01 -9.336207e+00 5.780360e+01 -3.640255e-08 4.596772e-07 NaN 0 0 0 -3.691410e+01 -1.547101e+01 2.828563e+01 -1.031588e+02 1.478922e+01 -1.453052e+02 2.578029e-07 -3.508366e-07 NaN 3.278030e-01 1.542234e+00 -8.823000e-03 0 0 2.007624e-07 
0 0 0 1.450115e+00 5.735956e-01 -1.174398e+01 -4.087458e+00 5.870953e+00 4.186518e-01 5.633808e+00 -6.918119e+00 1.854719e-01 0 0 NaN -2.260181e+00 8.705007e+00 2.872053e-01 5.457840e+00 -1.292677e+01 7.215689e-01 0 0 -2.241136e-08 -3.758458e-07 NaN 3.000000e-06 0 0 0 3.935638e+01 2.988003e-01 9.052674e+00 8.428220e+01 -9.498258e+00 6.855730e+01 -3.333561e-08 NaN 1.786439e-07 0 0 0 -3.716023e+01 -1.799744e+01 3.037486e+01 -1.049810e+02 1.549437e+01 -1.466266e+02 NaN NaN -3.172353e-08 5.360490e-01 1.311408e+00 -1.221362e-02 0 0 NaN 
0 0 0 1.652694e+00 1.076024e+00 -1.215958e+01 -4.643986e+00 5.978485e+00 4.860950e-01 6.365219e+00 -7.784140e+00 2.450894e-01 0 0 -2.424285e-07 -2.430085e+00 7.895845e+00 2.702109e-01 5.421756e+00 -1.258783e+01 6.559864e-01 0 0 -1.553811e-08 3.674813e-09 -2.161003e-08 9.000000e-06 0 0 0 3.951961e+01 -1.651844e+00 6.741563e+00 8.891690e+01 -9.499344e+00 8.477390e+01 -2.919296e-08 NaN NaN 0 0 0 -3.797435e+01 -2.267388e+01 3.367454e+01 -1.059910e+02 1.694742e+01 -1.500878e+02 NaN NaN 1.684693e-07 6.550920e-01 1.661753e+00 -1.901700e-02 0 0 NaN 
0 0 0 1.460180e+00 3.328173e-01 -1.231030e+01 -4.604065e+00 7.127086e+00 5.724320e-01 6.107910e+00 NaN 2.378110e-01 0 0 NaN -2.349960e+00 8.531765e+00 3.118542e-01 5.118410e+00 -1.205745e+01 5.844079e-01 0 0 -9.604793e-09 NaN 1.242764e-07 1.000000e-06 0 0 0 3.985650e+01 -5.695340e+00 2.012109e+00 9.111168e+01 -7.573375e+00 9.160056e+01 -6.354515e-08 7.640033e-08 NaN 0 0 0 -3.728254e+01 -2.713577e+01 3.784604e+01 -1.083046e+02 1.524090e+01 -1.594235e+02 5.006444e-08 -1.657147e-07 NaN 5.158930e-01 1.236935e+00 -1.109400e-02 0 0 -2.503784e-08 
